<mxfile host="app.diagrams.net" modified="2021-05-02T02:04:15.167Z" agent="5.0 (Macintosh; Intel Mac OS X 11_2_1) AppleWebKit/537.36 (KHTML, like Gecko) Chrome/89.0.4389.82 Safari/537.36 Edg/89.0.774.50" etag="XZ5d7qS5VtQr2ikbUNql" version="14.6.9" type="github">
  <diagram id="9WjSItWywJxddKwwvxhq" name="第 1 页">
    <mxGraphModel dx="1186" dy="771" grid="1" gridSize="10" guides="1" tooltips="1" connect="1" arrows="1" fold="1" page="1" pageScale="1" pageWidth="827" pageHeight="1169" math="0" shadow="0">
      <root>
        <mxCell id="0" />
        <mxCell id="1" parent="0" />
        <mxCell id="h78KAsakX2_PU5KtXwh2-12" value="" style="edgeStyle=orthogonalEdgeStyle;rounded=0;orthogonalLoop=1;jettySize=auto;html=1;" edge="1" parent="1" source="h78KAsakX2_PU5KtXwh2-1" target="h78KAsakX2_PU5KtXwh2-10">
          <mxGeometry relative="1" as="geometry" />
        </mxCell>
        <mxCell id="h78KAsakX2_PU5KtXwh2-1" value="开始" style="rounded=1;whiteSpace=wrap;html=1;" vertex="1" parent="1">
          <mxGeometry x="180" y="210" width="120" height="60" as="geometry" />
        </mxCell>
        <mxCell id="h78KAsakX2_PU5KtXwh2-14" value="" style="edgeStyle=orthogonalEdgeStyle;rounded=0;orthogonalLoop=1;jettySize=auto;html=1;" edge="1" parent="1" source="h78KAsakX2_PU5KtXwh2-10" target="h78KAsakX2_PU5KtXwh2-13">
          <mxGeometry relative="1" as="geometry" />
        </mxCell>
        <mxCell id="h78KAsakX2_PU5KtXwh2-17" value="" style="edgeStyle=orthogonalEdgeStyle;rounded=0;orthogonalLoop=1;jettySize=auto;html=1;" edge="1" parent="1" source="h78KAsakX2_PU5KtXwh2-10" target="h78KAsakX2_PU5KtXwh2-15">
          <mxGeometry relative="1" as="geometry" />
        </mxCell>
        <mxCell id="h78KAsakX2_PU5KtXwh2-10" value="已登录" style="rhombus;whiteSpace=wrap;html=1;" vertex="1" parent="1">
          <mxGeometry x="200" y="320" width="80" height="80" as="geometry" />
        </mxCell>
        <mxCell id="h78KAsakX2_PU5KtXwh2-29" style="edgeStyle=orthogonalEdgeStyle;rounded=0;orthogonalLoop=1;jettySize=auto;html=1;entryX=1;entryY=0.5;entryDx=0;entryDy=0;" edge="1" parent="1" source="h78KAsakX2_PU5KtXwh2-13" target="h78KAsakX2_PU5KtXwh2-26">
          <mxGeometry relative="1" as="geometry">
            <Array as="points">
              <mxPoint x="550" y="360" />
              <mxPoint x="550" y="820" />
            </Array>
          </mxGeometry>
        </mxCell>
        <mxCell id="h78KAsakX2_PU5KtXwh2-13" value="无法上传" style="rounded=0;whiteSpace=wrap;html=1;" vertex="1" parent="1">
          <mxGeometry x="354" y="330" width="120" height="60" as="geometry" />
        </mxCell>
        <mxCell id="h78KAsakX2_PU5KtXwh2-19" value="" style="edgeStyle=orthogonalEdgeStyle;rounded=0;orthogonalLoop=1;jettySize=auto;html=1;" edge="1" parent="1" source="h78KAsakX2_PU5KtXwh2-15" target="h78KAsakX2_PU5KtXwh2-18">
          <mxGeometry relative="1" as="geometry" />
        </mxCell>
        <mxCell id="h78KAsakX2_PU5KtXwh2-15" value="输入商品描述、价格、图片" style="rounded=0;whiteSpace=wrap;html=1;" vertex="1" parent="1">
          <mxGeometry x="180" y="430" width="120" height="60" as="geometry" />
        </mxCell>
        <mxCell id="h78KAsakX2_PU5KtXwh2-16" value="否" style="text;html=1;align=center;verticalAlign=middle;resizable=0;points=[];autosize=1;strokeColor=none;" vertex="1" parent="1">
          <mxGeometry x="295" y="330" width="30" height="20" as="geometry" />
        </mxCell>
        <mxCell id="h78KAsakX2_PU5KtXwh2-21" value="" style="edgeStyle=orthogonalEdgeStyle;rounded=0;orthogonalLoop=1;jettySize=auto;html=1;" edge="1" parent="1" source="h78KAsakX2_PU5KtXwh2-18" target="h78KAsakX2_PU5KtXwh2-20">
          <mxGeometry relative="1" as="geometry" />
        </mxCell>
        <mxCell id="h78KAsakX2_PU5KtXwh2-24" value="" style="edgeStyle=orthogonalEdgeStyle;rounded=0;orthogonalLoop=1;jettySize=auto;html=1;" edge="1" parent="1" source="h78KAsakX2_PU5KtXwh2-18" target="h78KAsakX2_PU5KtXwh2-23">
          <mxGeometry relative="1" as="geometry" />
        </mxCell>
        <mxCell id="h78KAsakX2_PU5KtXwh2-18" value="输入有效？" style="rhombus;whiteSpace=wrap;html=1;" vertex="1" parent="1">
          <mxGeometry x="200" y="530" width="80" height="80" as="geometry" />
        </mxCell>
        <mxCell id="h78KAsakX2_PU5KtXwh2-28" style="edgeStyle=orthogonalEdgeStyle;rounded=0;orthogonalLoop=1;jettySize=auto;html=1;entryX=1;entryY=0.5;entryDx=0;entryDy=0;" edge="1" parent="1" source="h78KAsakX2_PU5KtXwh2-20" target="h78KAsakX2_PU5KtXwh2-26">
          <mxGeometry relative="1" as="geometry">
            <Array as="points">
              <mxPoint x="410" y="820" />
            </Array>
          </mxGeometry>
        </mxCell>
        <mxCell id="h78KAsakX2_PU5KtXwh2-20" value="失败" style="rounded=0;whiteSpace=wrap;html=1;" vertex="1" parent="1">
          <mxGeometry x="350" y="540" width="120" height="60" as="geometry" />
        </mxCell>
        <mxCell id="h78KAsakX2_PU5KtXwh2-22" value="否" style="text;html=1;align=center;verticalAlign=middle;resizable=0;points=[];autosize=1;strokeColor=none;" vertex="1" parent="1">
          <mxGeometry x="285" y="540" width="30" height="20" as="geometry" />
        </mxCell>
        <mxCell id="h78KAsakX2_PU5KtXwh2-27" value="" style="edgeStyle=orthogonalEdgeStyle;rounded=0;orthogonalLoop=1;jettySize=auto;html=1;" edge="1" parent="1" source="h78KAsakX2_PU5KtXwh2-23" target="h78KAsakX2_PU5KtXwh2-26">
          <mxGeometry relative="1" as="geometry" />
        </mxCell>
        <mxCell id="h78KAsakX2_PU5KtXwh2-23" value="成功" style="rounded=0;whiteSpace=wrap;html=1;" vertex="1" parent="1">
          <mxGeometry x="180" y="670" width="120" height="60" as="geometry" />
        </mxCell>
        <mxCell id="h78KAsakX2_PU5KtXwh2-25" value="是" style="text;html=1;align=center;verticalAlign=middle;resizable=0;points=[];autosize=1;strokeColor=none;" vertex="1" parent="1">
          <mxGeometry x="205" y="620" width="30" height="20" as="geometry" />
        </mxCell>
        <mxCell id="h78KAsakX2_PU5KtXwh2-26" value="结束" style="rounded=1;whiteSpace=wrap;html=1;" vertex="1" parent="1">
          <mxGeometry x="180" y="790" width="120" height="60" as="geometry" />
        </mxCell>
      </root>
    </mxGraphModel>
  </diagram>
</mxfile>
